# xmcd
#
# Track frame offsets: 
#        150
#        13413
#        23818
#        33925
#        46216
#        55807
#        67476
#        78488
#        91732
#        105358
#        118444
#        127365
#        137818
#        149805
#        160704
#        174662
#        189456
#        202358
#        214580
#        228028
#        241343
#        254862
#        265171
#        275254
#        287839
#        300899
#        313435
#        327745
#
# Disc length: 4553 seconds
#
# Revision: 2
# Processed by: cddbd v1.5.2PL0 Copyright (c) Steve Scherf et al.
# Submitted via: ExactAudioCopy v1.0b1
#
DISCID=b811c71c
DTITLE=Joe Tex - The Love You Save with I've Got to Do a Little Bit Be
DTITLE=tter
DYEAR=2001
DGENRE=Soul
TTITLE0=The Love You Save (May Be Your Own)
TTITLE1=Live For Yourself
TTITLE2=Build Your Love (On A Solid Foundation)
TTITLE3=I Don't Trust Myself Around You
TTITLE4=Funny Bone
TTITLE5=A Sweet Woman Like You
TTITLE6=I'm a Man
TTITLE7=You Better Believe It Baby
TTITLE8=Close the Door
TTITLE9=If Sugar Was As Sweet As You
TTITLE10=Heartbreak Hotel
TTITLE11=Don't Let Your Left Hand Know (What Your Right Hand Is Doing)
TTITLE12=Papa Was Too
TTITLE13=What Me And My Baby Ain't Got
TTITLE14=A Woman Sees A Hard Time (When Her Man Is Gone)
TTITLE15=Watch The One (That Brings The Bad News)
TTITLE16=Taking Care Of A Woman (Is A Full Time Job)
TTITLE17=Lying's Just A Habit, John
TTITLE18=I've Got To Do A Little Bit Better
TTITLE19=The Truest Woman In The Wold
TTITLE20=I Believe I'm Gonna Make It
TTITLE21=Got You On My Mind
TTITLE22=Half A Mind
TTITLE23=S.Y.S.L.J.F.M. (The Letter Song)
TTITLE24=Show Me
TTITLE25=I'm Going And Get It
TTITLE26=Woman Like That Yeah
TTITLE27=All A Man Needs (Is His Woman's Love)
EXTD=
EXTT0=
EXTT1=
EXTT2=
EXTT3=
EXTT4=
EXTT5=
EXTT6=
EXTT7=
EXTT8=
EXTT9=
EXTT10=
EXTT11=
EXTT12=
EXTT13=
EXTT14=
EXTT15=
EXTT16=
EXTT17=
EXTT18=
EXTT19=
EXTT20=
EXTT21=
EXTT22=
EXTT23=
EXTT24=
EXTT25=
EXTT26=
EXTT27=
PLAYORDER=
